STARTFONT 2.1
COMMENT Exported by Fony v1.4.7
FONT Not Jam Ripoff
SIZE 16 96 96
FONTBOUNDINGBOX 17 15 0 -6
STARTPROPERTIES 6
COPYRIGHT "Created with Fony 1.4.7"
RESOLUTION_X 96
RESOLUTION_Y 96
FONT_ASCENT 10
FONT_DESCENT 6
DEFAULT_CHAR 0
ENDPROPERTIES
CHARS 256
STARTCHAR 000
ENCODING 0
SWIDTH 504 0
DWIDTH 7 0
BBX 0 0 0 0
BITMAP
ENDCHAR
STARTCHAR 001
ENCODING 1
SWIDTH 504 0
DWIDTH 7 0
BBX 0 0 0 0
BITMAP
ENDCHAR
STARTCHAR 002
ENCODING 2
SWIDTH 504 0
DWIDTH 7 0
BBX 0 0 0 0
BITMAP
ENDCHAR
STARTCHAR 003
ENCODING 3
SWIDTH 504 0
DWIDTH 7 0
BBX 0 0 0 0
BITMAP
ENDCHAR
STARTCHAR 004
ENCODING 4
SWIDTH 504 0
DWIDTH 7 0
BBX 0 0 0 0
BITMAP
ENDCHAR
STARTCHAR 005
ENCODING 5
SWIDTH 504 0
DWIDTH 7 0
BBX 0 0 0 0
BITMAP
ENDCHAR
STARTCHAR 006
ENCODING 6
SWIDTH 504 0
DWIDTH 7 0
BBX 0 0 0 0
BITMAP
ENDCHAR
STARTCHAR 007
ENCODING 7
SWIDTH 504 0
DWIDTH 7 0
BBX 0 0 0 0
BITMAP
ENDCHAR
STARTCHAR 008
ENCODING 8
SWIDTH 504 0
DWIDTH 7 0
BBX 0 0 0 0
BITMAP
ENDCHAR
STARTCHAR 009
ENCODING 9
SWIDTH 504 0
DWIDTH 7 0
BBX 0 0 0 0
BITMAP
ENDCHAR
STARTCHAR 010
ENCODING 10
SWIDTH 504 0
DWIDTH 7 0
BBX 0 0 0 0
BITMAP
ENDCHAR
STARTCHAR 011
ENCODING 11
SWIDTH 504 0
DWIDTH 7 0
BBX 0 0 0 0
BITMAP
ENDCHAR
STARTCHAR 012
ENCODING 12
SWIDTH 504 0
DWIDTH 7 0
BBX 0 0 0 0
BITMAP
ENDCHAR
STARTCHAR 013
ENCODING 13
SWIDTH 504 0
DWIDTH 7 0
BBX 0 0 0 0
BITMAP
ENDCHAR
STARTCHAR 014
ENCODING 14
SWIDTH 504 0
DWIDTH 7 0
BBX 0 0 0 0
BITMAP
ENDCHAR
STARTCHAR 015
ENCODING 15
SWIDTH 504 0
DWIDTH 7 0
BBX 0 0 0 0
BITMAP
ENDCHAR
STARTCHAR 016
ENCODING 16
SWIDTH 504 0
DWIDTH 7 0
BBX 0 0 0 0
BITMAP
ENDCHAR
STARTCHAR 017
ENCODING 17
SWIDTH 504 0
DWIDTH 7 0
BBX 0 0 0 0
BITMAP
ENDCHAR
STARTCHAR 018
ENCODING 18
SWIDTH 504 0
DWIDTH 7 0
BBX 0 0 0 0
BITMAP
ENDCHAR
STARTCHAR 019
ENCODING 19
SWIDTH 504 0
DWIDTH 7 0
BBX 0 0 0 0
BITMAP
ENDCHAR
STARTCHAR 020
ENCODING 20
SWIDTH 504 0
DWIDTH 7 0
BBX 0 0 0 0
BITMAP
ENDCHAR
STARTCHAR 021
ENCODING 21
SWIDTH 504 0
DWIDTH 7 0
BBX 0 0 0 0
BITMAP
ENDCHAR
STARTCHAR 022
ENCODING 22
SWIDTH 504 0
DWIDTH 7 0
BBX 0 0 0 0
BITMAP
ENDCHAR
STARTCHAR 023
ENCODING 23
SWIDTH 504 0
DWIDTH 7 0
BBX 0 0 0 0
BITMAP
ENDCHAR
STARTCHAR 024
ENCODING 24
SWIDTH 504 0
DWIDTH 7 0
BBX 0 0 0 0
BITMAP
ENDCHAR
STARTCHAR 025
ENCODING 25
SWIDTH 504 0
DWIDTH 7 0
BBX 0 0 0 0
BITMAP
ENDCHAR
STARTCHAR 026
ENCODING 26
SWIDTH 504 0
DWIDTH 7 0
BBX 0 0 0 0
BITMAP
ENDCHAR
STARTCHAR 027
ENCODING 27
SWIDTH 504 0
DWIDTH 7 0
BBX 0 0 0 0
BITMAP
ENDCHAR
STARTCHAR 028
ENCODING 28
SWIDTH 504 0
DWIDTH 7 0
BBX 0 0 0 0
BITMAP
ENDCHAR
STARTCHAR 029
ENCODING 29
SWIDTH 504 0
DWIDTH 7 0
BBX 0 0 0 0
BITMAP
ENDCHAR
STARTCHAR 030
ENCODING 30
SWIDTH 504 0
DWIDTH 7 0
BBX 0 0 0 0
BITMAP
ENDCHAR
STARTCHAR 031
ENCODING 31
SWIDTH 504 0
DWIDTH 7 0
BBX 0 0 0 0
BITMAP
ENDCHAR
STARTCHAR 032
ENCODING 32
SWIDTH 504 0
DWIDTH 7 0
BBX 0 0 0 0
BITMAP
ENDCHAR
STARTCHAR 033
ENCODING 33
SWIDTH 216 0
DWIDTH 3 0
BBX 2 8 0 0
BITMAP
C0
C0
C0
40
40
00
C0
C0
ENDCHAR
STARTCHAR 034
ENCODING 34
SWIDTH 432 0
DWIDTH 6 0
BBX 5 3 0 5
BITMAP
D8
D8
90
ENDCHAR
STARTCHAR 035
ENCODING 35
SWIDTH 720 0
DWIDTH 10 0
BBX 9 8 0 0
BITMAP
1B00
7F80
7F80
3600
3600
FF00
FF00
6C00
ENDCHAR
STARTCHAR 036
ENCODING 36
SWIDTH 504 0
DWIDTH 7 0
BBX 6 10 0 -2
BITMAP
30
30
7C
F0
F8
7C
3C
F8
30
30
ENDCHAR
STARTCHAR 037
ENCODING 37
SWIDTH 576 0
DWIDTH 8 0
BBX 7 8 0 0
BITMAP
CC
C8
18
10
30
20
66
46
ENDCHAR
STARTCHAR 038
ENCODING 38
SWIDTH 648 0
DWIDTH 9 0
BBX 8 8 0 0
BITMAP
78
C8
C0
EE
74
B8
DC
6F
ENDCHAR
STARTCHAR 039
ENCODING 39
SWIDTH 216 0
DWIDTH 3 0
BBX 2 3 0 5
BITMAP
C0
C0
C0
ENDCHAR
STARTCHAR 040
ENCODING 40
SWIDTH 360 0
DWIDTH 5 0
BBX 4 10 0 -2
BITMAP
30
60
40
C0
C0
C0
C0
40
60
30
ENDCHAR
STARTCHAR 041
ENCODING 41
SWIDTH 360 0
DWIDTH 5 0
BBX 4 10 0 -2
BITMAP
C0
60
20
30
30
30
30
20
60
C0
ENDCHAR
STARTCHAR 042
ENCODING 42
SWIDTH 432 0
DWIDTH 6 0
BBX 5 4 0 4
BITMAP
20
F8
70
50
ENDCHAR
STARTCHAR 043
ENCODING 43
SWIDTH 504 0
DWIDTH 7 0
BBX 6 6 0 0
BITMAP
30
30
FC
FC
30
30
ENDCHAR
STARTCHAR 044
ENCODING 44
SWIDTH 216 0
DWIDTH 3 0
BBX 2 4 0 -2
BITMAP
C0
C0
40
80
ENDCHAR
STARTCHAR 045
ENCODING 45
SWIDTH 504 0
DWIDTH 7 0
BBX 6 2 0 2
BITMAP
FC
FC
ENDCHAR
STARTCHAR 046
ENCODING 46
SWIDTH 216 0
DWIDTH 3 0
BBX 2 2 0 0
BITMAP
C0
C0
ENDCHAR
STARTCHAR 047
ENCODING 47
SWIDTH 504 0
DWIDTH 7 0
BBX 5 8 0 0
BITMAP
18
10
30
20
60
40
C0
80
ENDCHAR
STARTCHAR 048
ENCODING 48
SWIDTH 504 0
DWIDTH 7 0
BBX 6 6 0 0
BITMAP
38
CC
CC
CC
CC
70
ENDCHAR
STARTCHAR 049
ENCODING 49
SWIDTH 360 0
DWIDTH 5 0
BBX 4 6 0 0
BITMAP
60
E0
60
60
60
F0
ENDCHAR
STARTCHAR 050
ENCODING 50
SWIDTH 432 0
DWIDTH 6 0
BBX 5 6 0 0
BITMAP
70
98
18
30
60
F8
ENDCHAR
STARTCHAR 051
ENCODING 51
SWIDTH 432 0
DWIDTH 6 0
BBX 5 8 0 -2
BITMAP
70
98
18
30
18
18
98
70
ENDCHAR
STARTCHAR 052
ENCODING 52
SWIDTH 648 0
DWIDTH 9 0
BBX 8 8 0 -2
BITMAP
0C
1C
3C
6C
CD
FF
0C
0C
ENDCHAR
STARTCHAR 053
ENCODING 53
SWIDTH 432 0
DWIDTH 6 0
BBX 5 9 0 -2
BITMAP
08
F8
80
F0
38
18
18
30
C0
ENDCHAR
STARTCHAR 054
ENCODING 54
SWIDTH 576 0
DWIDTH 8 0
BBX 7 8 0 0
BITMAP
18
30
60
FC
C6
C6
C4
78
ENDCHAR
STARTCHAR 055
ENCODING 55
SWIDTH 504 0
DWIDTH 7 0
BBX 6 8 0 -2
BITMAP
FC
8C
18
30
30
60
60
60
ENDCHAR
STARTCHAR 056
ENCODING 56
SWIDTH 576 0
DWIDTH 8 0
BBX 7 8 0 0
BITMAP
7C
C6
E6
7C
CE
C6
C6
7C
ENDCHAR
STARTCHAR 057
ENCODING 57
SWIDTH 576 0
DWIDTH 8 0
BBX 7 8 0 -2
BITMAP
3C
46
C6
C6
7C
0C
18
30
ENDCHAR
STARTCHAR 058
ENCODING 58
SWIDTH 216 0
DWIDTH 3 0
BBX 2 6 0 0
BITMAP
C0
C0
00
00
C0
C0
ENDCHAR
STARTCHAR 059
ENCODING 59
SWIDTH 216 0
DWIDTH 3 0
BBX 2 8 0 -2
BITMAP
C0
C0
00
00
C0
C0
40
80
ENDCHAR
STARTCHAR 060
ENCODING 60
SWIDTH 432 0
DWIDTH 6 0
BBX 5 6 0 0
BITMAP
38
70
E0
E0
70
38
ENDCHAR
STARTCHAR 061
ENCODING 61
SWIDTH 504 0
DWIDTH 7 0
BBX 6 6 0 0
BITMAP
FC
FC
00
00
FC
FC
ENDCHAR
STARTCHAR 062
ENCODING 62
SWIDTH 432 0
DWIDTH 6 0
BBX 5 6 0 0
BITMAP
E0
70
38
38
70
E0
ENDCHAR
STARTCHAR 063
ENCODING 63
SWIDTH 432 0
DWIDTH 6 0
BBX 5 8 0 0
BITMAP
70
98
18
30
20
00
60
60
ENDCHAR
STARTCHAR 064
ENCODING 64
SWIDTH 864 0
DWIDTH 12 0
BBX 11 10 0 -2
BITMAP
3F80
40C0
9D60
B360
B360
B360
B360
9DC0
4000
3F00
ENDCHAR
STARTCHAR 065
ENCODING 65
SWIDTH 792 0
DWIDTH 11 0
BBX 10 8 0 0
BITMAP
0C00
1E00
1600
3700
2300
7F80
4180
E3C0
ENDCHAR
STARTCHAR 066
ENCODING 66
SWIDTH 648 0
DWIDTH 9 0
BBX 8 8 0 0
BITMAP
FC
66
66
7C
62
63
63
FE
ENDCHAR
STARTCHAR 067
ENCODING 67
SWIDTH 648 0
DWIDTH 9 0
BBX 8 8 0 0
BITMAP
3E
63
C0
C0
C0
C0
63
3E
ENDCHAR
STARTCHAR 068
ENCODING 68
SWIDTH 720 0
DWIDTH 10 0
BBX 9 8 0 0
BITMAP
FE00
6300
6180
6180
6180
6180
6300
FE00
ENDCHAR
STARTCHAR 069
ENCODING 69
SWIDTH 648 0
DWIDTH 9 0
BBX 8 8 0 0
BITMAP
FF
61
64
7C
64
60
61
FF
ENDCHAR
STARTCHAR 070
ENCODING 70
SWIDTH 648 0
DWIDTH 9 0
BBX 8 8 0 0
BITMAP
FF
61
64
7C
64
60
60
F0
ENDCHAR
STARTCHAR 071
ENCODING 71
SWIDTH 720 0
DWIDTH 10 0
BBX 9 8 0 0
BITMAP
3E00
6300
C000
C000
C780
C300
6300
3E00
ENDCHAR
STARTCHAR 072
ENCODING 72
SWIDTH 792 0
DWIDTH 11 0
BBX 10 8 0 0
BITMAP
F3C0
6180
6180
7F80
6180
6180
6180
F3C0
ENDCHAR
STARTCHAR 073
ENCODING 73
SWIDTH 360 0
DWIDTH 5 0
BBX 4 8 0 0
BITMAP
F0
60
60
60
60
60
60
F0
ENDCHAR
STARTCHAR 074
ENCODING 74
SWIDTH 504 0
DWIDTH 7 0
BBX 5 11 0 -3
BITMAP
78
30
30
30
30
30
30
30
30
60
80
ENDCHAR
STARTCHAR 075
ENCODING 75
SWIDTH 720 0
DWIDTH 10 0
BBX 9 8 0 0
BITMAP
F380
6600
6C00
7800
7C00
6E00
6700
F380
ENDCHAR
STARTCHAR 076
ENCODING 76
SWIDTH 576 0
DWIDTH 8 0
BBX 7 8 0 0
BITMAP
F0
60
60
60
60
60
62
FE
ENDCHAR
STARTCHAR 077
ENCODING 77
SWIDTH 1080 0
DWIDTH 15 0
BBX 13 8 0 0
BITMAP
F8F8
7070
78F0
7DB0
6F30
6630
6030
F078
ENDCHAR
STARTCHAR 078
ENCODING 78
SWIDTH 792 0
DWIDTH 11 0
BBX 10 8 0 0
BITMAP
F9C0
7080
7880
7C80
6E80
6780
6380
F1C0
ENDCHAR
STARTCHAR 079
ENCODING 79
SWIDTH 720 0
DWIDTH 10 0
BBX 9 8 0 0
BITMAP
1E00
6300
C180
C180
C180
C180
6300
3C00
ENDCHAR
STARTCHAR 080
ENCODING 80
SWIDTH 648 0
DWIDTH 9 0
BBX 8 8 0 0
BITMAP
FE
63
63
63
6E
60
60
F0
ENDCHAR
STARTCHAR 081
ENCODING 81
SWIDTH 720 0
DWIDTH 10 0
BBX 9 11 0 -3
BITMAP
1E00
6300
C180
C180
C180
C180
6300
3C00
7800
4C80
0700
ENDCHAR
STARTCHAR 082
ENCODING 82
SWIDTH 648 0
DWIDTH 9 0
BBX 8 8 0 0
BITMAP
FE
63
63
63
6E
64
66
F3
ENDCHAR
STARTCHAR 083
ENCODING 83
SWIDTH 576 0
DWIDTH 8 0
BBX 7 8 0 0
BITMAP
7C
C6
C0
70
1C
06
C6
7C
ENDCHAR
STARTCHAR 084
ENCODING 84
SWIDTH 648 0
DWIDTH 9 0
BBX 8 8 0 0
BITMAP
FF
99
18
18
18
18
18
3C
ENDCHAR
STARTCHAR 085
ENCODING 85
SWIDTH 792 0
DWIDTH 11 0
BBX 9 8 0 0
BITMAP
F380
6100
6100
6100
6100
6100
6100
3E00
ENDCHAR
STARTCHAR 086
ENCODING 86
SWIDTH 936 0
DWIDTH 13 0
BBX 12 8 0 0
BITMAP
F8F0
7060
3040
38C0
1880
1D80
0D00
0F00
ENDCHAR
STARTCHAR 087
ENCODING 87
SWIDTH 1224 0
DWIDTH 17 0
BBX 16 8 0 0
BITMAP
F80F
7386
3184
39CC
18C8
1DD8
0D70
0F70
ENDCHAR
STARTCHAR 088
ENCODING 88
SWIDTH 792 0
DWIDTH 11 0
BBX 10 8 0 0
BITMAP
FBC0
7180
3B00
1E00
1E00
3700
6380
F7C0
ENDCHAR
STARTCHAR 089
ENCODING 89
SWIDTH 792 0
DWIDTH 11 0
BBX 10 8 0 0
BITMAP
FBC0
7180
3B00
1E00
0C00
0C00
0C00
1E00
ENDCHAR
STARTCHAR 090
ENCODING 90
SWIDTH 720 0
DWIDTH 10 0
BBX 9 9 0 -1
BITMAP
FF80
8380
0700
0E00
1C00
3800
7080
F080
1F00
ENDCHAR
STARTCHAR 091
ENCODING 91
SWIDTH 360 0
DWIDTH 5 0
BBX 4 8 0 0
BITMAP
F0
C0
C0
C0
C0
C0
C0
F0
ENDCHAR
STARTCHAR 092
ENCODING 92
SWIDTH 432 0
DWIDTH 6 0
BBX 5 8 0 0
BITMAP
C0
40
60
20
30
10
18
08
ENDCHAR
STARTCHAR 093
ENCODING 93
SWIDTH 360 0
DWIDTH 5 0
BBX 4 8 0 0
BITMAP
F0
30
30
30
30
30
30
F0
ENDCHAR
STARTCHAR 094
ENCODING 94
SWIDTH 576 0
DWIDTH 8 0
BBX 7 4 0 4
BITMAP
10
38
6C
C6
ENDCHAR
STARTCHAR 095
ENCODING 95
SWIDTH 504 0
DWIDTH 7 0
BBX 6 1 0 -1
BITMAP
FC
ENDCHAR
STARTCHAR 096
ENCODING 96
SWIDTH 504 0
DWIDTH 7 0
BBX 2 3 0 5
BITMAP
C0
C0
40
ENDCHAR
STARTCHAR 097
ENCODING 97
SWIDTH 648 0
DWIDTH 9 0
BBX 8 6 0 0
BITMAP
3C
06
7E
C6
C6
7B
ENDCHAR
STARTCHAR 098
ENCODING 98
SWIDTH 720 0
DWIDTH 10 0
BBX 9 8 0 0
BITMAP
6000
E000
6F00
7380
7180
7180
7980
EE00
ENDCHAR
STARTCHAR 099
ENCODING 99
SWIDTH 576 0
DWIDTH 8 0
BBX 7 6 0 0
BITMAP
3E
46
C0
C0
E6
7C
ENDCHAR
STARTCHAR 100
ENCODING 100
SWIDTH 720 0
DWIDTH 10 0
BBX 9 8 0 0
BITMAP
0300
0380
7B00
E700
C700
C700
CF00
3B80
ENDCHAR
STARTCHAR 101
ENCODING 101
SWIDTH 576 0
DWIDTH 8 0
BBX 7 6 0 0
BITMAP
3C
46
C6
DC
E0
7C
ENDCHAR
STARTCHAR 102
ENCODING 102
SWIDTH 504 0
DWIDTH 7 0
BBX 6 8 0 0
BITMAP
38
7C
64
60
F0
60
60
F0
ENDCHAR
STARTCHAR 103
ENCODING 103
SWIDTH 576 0
DWIDTH 8 0
BBX 8 9 0 -3
BITMAP
7D
C6
C6
7C
C0
7C
C6
C6
7C
ENDCHAR
STARTCHAR 104
ENCODING 104
SWIDTH 720 0
DWIDTH 10 0
BBX 9 8 0 0
BITMAP
6000
E000
6E00
7300
6300
6300
6300
F780
ENDCHAR
STARTCHAR 105
ENCODING 105
SWIDTH 360 0
DWIDTH 5 0
BBX 4 8 0 0
BITMAP
60
00
60
E0
60
60
60
F0
ENDCHAR
STARTCHAR 106
ENCODING 106
SWIDTH 288 0
DWIDTH 4 0
BBX 3 11 0 -3
BITMAP
60
00
60
E0
60
60
60
60
60
60
C0
ENDCHAR
STARTCHAR 107
ENCODING 107
SWIDTH 648 0
DWIDTH 9 0
BBX 8 8 0 0
BITMAP
60
E0
6E
6C
78
7C
6E
F7
ENDCHAR
STARTCHAR 108
ENCODING 108
SWIDTH 360 0
DWIDTH 5 0
BBX 4 8 0 0
BITMAP
60
E0
60
60
60
60
60
F0
ENDCHAR
STARTCHAR 109
ENCODING 109
SWIDTH 1080 0
DWIDTH 15 0
BBX 14 6 0 0
BITMAP
6E70
F398
6318
6318
6318
F7BC
ENDCHAR
STARTCHAR 110
ENCODING 110
SWIDTH 720 0
DWIDTH 10 0
BBX 9 6 0 0
BITMAP
6E00
F300
6300
6300
6300
F780
ENDCHAR
STARTCHAR 111
ENCODING 111
SWIDTH 576 0
DWIDTH 8 0
BBX 7 6 0 0
BITMAP
3C
4E
C6
C6
E6
78
ENDCHAR
STARTCHAR 112
ENCODING 112
SWIDTH 720 0
DWIDTH 10 0
BBX 9 9 0 -3
BITMAP
6F00
F380
7180
7180
7980
6E00
6000
6000
F000
ENDCHAR
STARTCHAR 113
ENCODING 113
SWIDTH 720 0
DWIDTH 10 0
BBX 9 9 0 -3
BITMAP
3B00
CF80
C700
C700
E700
7B00
0300
0300
0780
ENDCHAR
STARTCHAR 114
ENCODING 114
SWIDTH 576 0
DWIDTH 8 0
BBX 7 6 0 0
BITMAP
6E
F6
60
60
60
F0
ENDCHAR
STARTCHAR 115
ENCODING 115
SWIDTH 504 0
DWIDTH 7 0
BBX 6 6 0 0
BITMAP
78
C4
F8
7C
8C
78
ENDCHAR
STARTCHAR 116
ENCODING 116
SWIDTH 360 0
DWIDTH 5 0
BBX 4 8 0 0
BITMAP
20
60
F0
60
60
60
60
30
ENDCHAR
STARTCHAR 117
ENCODING 117
SWIDTH 720 0
DWIDTH 10 0
BBX 9 6 0 0
BITMAP
F780
6300
6300
6300
6300
3C00
ENDCHAR
STARTCHAR 118
ENCODING 118
SWIDTH 720 0
DWIDTH 10 0
BBX 9 6 0 0
BITMAP
F780
6300
6200
3600
3400
1C00
ENDCHAR
STARTCHAR 119
ENCODING 119
SWIDTH 1008 0
DWIDTH 14 0
BBX 13 6 0 0
BITMAP
F778
6630
6320
3360
35C0
1DC0
ENDCHAR
STARTCHAR 120
ENCODING 120
SWIDTH 576 0
DWIDTH 8 0
BBX 7 6 0 0
BITMAP
E6
6C
38
38
6C
CE
ENDCHAR
STARTCHAR 121
ENCODING 121
SWIDTH 720 0
DWIDTH 10 0
BBX 9 9 0 -3
BITMAP
F780
6300
6200
3600
3400
1C00
1800
3800
3000
ENDCHAR
STARTCHAR 122
ENCODING 122
SWIDTH 576 0
DWIDTH 8 0
BBX 7 7 0 -1
BITMAP
FE
8E
1C
38
70
F2
1E
ENDCHAR
STARTCHAR 123
ENCODING 123
SWIDTH 432 0
DWIDTH 6 0
BBX 5 10 0 -2
BITMAP
38
60
60
60
C0
60
60
60
60
38
ENDCHAR
STARTCHAR 124
ENCODING 124
SWIDTH 216 0
DWIDTH 3 0
BBX 2 10 0 -2
BITMAP
C0
C0
C0
C0
C0
C0
C0
C0
C0
C0
ENDCHAR
STARTCHAR 125
ENCODING 125
SWIDTH 432 0
DWIDTH 6 0
BBX 5 10 0 -2
BITMAP
E0
30
30
30
18
30
30
30
30
E0
ENDCHAR
STARTCHAR 126
ENCODING 126
SWIDTH 576 0
DWIDTH 8 0
BBX 7 4 0 1
BITMAP
60
F2
9E
0C
ENDCHAR
STARTCHAR 127
ENCODING 127
SWIDTH 504 0
DWIDTH 7 0
BBX 0 0 0 0
BITMAP
ENDCHAR
STARTCHAR 128
ENCODING 128
SWIDTH 504 0
DWIDTH 7 0
BBX 0 0 0 0
BITMAP
ENDCHAR
STARTCHAR 129
ENCODING 129
SWIDTH 504 0
DWIDTH 7 0
BBX 0 0 0 0
BITMAP
ENDCHAR
STARTCHAR 130
ENCODING 130
SWIDTH 504 0
DWIDTH 7 0
BBX 0 0 0 0
BITMAP
ENDCHAR
STARTCHAR 131
ENCODING 131
SWIDTH 504 0
DWIDTH 7 0
BBX 0 0 0 0
BITMAP
ENDCHAR
STARTCHAR 132
ENCODING 132
SWIDTH 504 0
DWIDTH 7 0
BBX 0 0 0 0
BITMAP
ENDCHAR
STARTCHAR 133
ENCODING 133
SWIDTH 504 0
DWIDTH 7 0
BBX 0 0 0 0
BITMAP
ENDCHAR
STARTCHAR 134
ENCODING 134
SWIDTH 504 0
DWIDTH 7 0
BBX 0 0 0 0
BITMAP
ENDCHAR
STARTCHAR 135
ENCODING 135
SWIDTH 504 0
DWIDTH 7 0
BBX 0 0 0 0
BITMAP
ENDCHAR
STARTCHAR 136
ENCODING 136
SWIDTH 504 0
DWIDTH 7 0
BBX 0 0 0 0
BITMAP
ENDCHAR
STARTCHAR 137
ENCODING 137
SWIDTH 504 0
DWIDTH 7 0
BBX 0 0 0 0
BITMAP
ENDCHAR
STARTCHAR 138
ENCODING 138
SWIDTH 504 0
DWIDTH 7 0
BBX 0 0 0 0
BITMAP
ENDCHAR
STARTCHAR 139
ENCODING 139
SWIDTH 504 0
DWIDTH 7 0
BBX 0 0 0 0
BITMAP
ENDCHAR
STARTCHAR 140
ENCODING 140
SWIDTH 504 0
DWIDTH 7 0
BBX 0 0 0 0
BITMAP
ENDCHAR
STARTCHAR 141
ENCODING 141
SWIDTH 504 0
DWIDTH 7 0
BBX 0 0 0 0
BITMAP
ENDCHAR
STARTCHAR 142
ENCODING 142
SWIDTH 504 0
DWIDTH 7 0
BBX 0 0 0 0
BITMAP
ENDCHAR
STARTCHAR 143
ENCODING 143
SWIDTH 504 0
DWIDTH 7 0
BBX 0 0 0 0
BITMAP
ENDCHAR
STARTCHAR 144
ENCODING 144
SWIDTH 504 0
DWIDTH 7 0
BBX 0 0 0 0
BITMAP
ENDCHAR
STARTCHAR 145
ENCODING 145
SWIDTH 504 0
DWIDTH 7 0
BBX 0 0 0 0
BITMAP
ENDCHAR
STARTCHAR 146
ENCODING 146
SWIDTH 504 0
DWIDTH 7 0
BBX 0 0 0 0
BITMAP
ENDCHAR
STARTCHAR 147
ENCODING 147
SWIDTH 504 0
DWIDTH 7 0
BBX 0 0 0 0
BITMAP
ENDCHAR
STARTCHAR 148
ENCODING 148
SWIDTH 504 0
DWIDTH 7 0
BBX 0 0 0 0
BITMAP
ENDCHAR
STARTCHAR 149
ENCODING 149
SWIDTH 504 0
DWIDTH 7 0
BBX 0 0 0 0
BITMAP
ENDCHAR
STARTCHAR 150
ENCODING 150
SWIDTH 504 0
DWIDTH 7 0
BBX 0 0 0 0
BITMAP
ENDCHAR
STARTCHAR 151
ENCODING 151
SWIDTH 504 0
DWIDTH 7 0
BBX 0 0 0 0
BITMAP
ENDCHAR
STARTCHAR 152
ENCODING 152
SWIDTH 504 0
DWIDTH 7 0
BBX 0 0 0 0
BITMAP
ENDCHAR
STARTCHAR 153
ENCODING 153
SWIDTH 504 0
DWIDTH 7 0
BBX 0 0 0 0
BITMAP
ENDCHAR
STARTCHAR 154
ENCODING 154
SWIDTH 504 0
DWIDTH 7 0
BBX 0 0 0 0
BITMAP
ENDCHAR
STARTCHAR 155
ENCODING 155
SWIDTH 504 0
DWIDTH 7 0
BBX 0 0 0 0
BITMAP
ENDCHAR
STARTCHAR 156
ENCODING 156
SWIDTH 504 0
DWIDTH 7 0
BBX 0 0 0 0
BITMAP
ENDCHAR
STARTCHAR 157
ENCODING 157
SWIDTH 504 0
DWIDTH 7 0
BBX 0 0 0 0
BITMAP
ENDCHAR
STARTCHAR 158
ENCODING 158
SWIDTH 504 0
DWIDTH 7 0
BBX 0 0 0 0
BITMAP
ENDCHAR
STARTCHAR 159
ENCODING 159
SWIDTH 504 0
DWIDTH 7 0
BBX 0 0 0 0
BITMAP
ENDCHAR
STARTCHAR 160
ENCODING 160
SWIDTH 504 0
DWIDTH 7 0
BBX 0 0 0 0
BITMAP
ENDCHAR
STARTCHAR 161
ENCODING 161
SWIDTH 504 0
DWIDTH 7 0
BBX 0 0 0 0
BITMAP
ENDCHAR
STARTCHAR 162
ENCODING 162
SWIDTH 504 0
DWIDTH 7 0
BBX 0 0 0 0
BITMAP
ENDCHAR
STARTCHAR 163
ENCODING 163
SWIDTH 504 0
DWIDTH 7 0
BBX 0 0 0 0
BITMAP
ENDCHAR
STARTCHAR 164
ENCODING 164
SWIDTH 504 0
DWIDTH 7 0
BBX 0 0 0 0
BITMAP
ENDCHAR
STARTCHAR 165
ENCODING 165
SWIDTH 504 0
DWIDTH 7 0
BBX 0 0 0 0
BITMAP
ENDCHAR
STARTCHAR 166
ENCODING 166
SWIDTH 504 0
DWIDTH 7 0
BBX 0 0 0 0
BITMAP
ENDCHAR
STARTCHAR 167
ENCODING 167
SWIDTH 504 0
DWIDTH 7 0
BBX 0 0 0 0
BITMAP
ENDCHAR
STARTCHAR 168
ENCODING 168
SWIDTH 504 0
DWIDTH 7 0
BBX 0 0 0 0
BITMAP
ENDCHAR
STARTCHAR 169
ENCODING 169
SWIDTH 504 0
DWIDTH 7 0
BBX 0 0 0 0
BITMAP
ENDCHAR
STARTCHAR 170
ENCODING 170
SWIDTH 504 0
DWIDTH 7 0
BBX 0 0 0 0
BITMAP
ENDCHAR
STARTCHAR 171
ENCODING 171
SWIDTH 504 0
DWIDTH 7 0
BBX 0 0 0 0
BITMAP
ENDCHAR
STARTCHAR 172
ENCODING 172
SWIDTH 504 0
DWIDTH 7 0
BBX 0 0 0 0
BITMAP
ENDCHAR
STARTCHAR 173
ENCODING 173
SWIDTH 504 0
DWIDTH 7 0
BBX 0 0 0 0
BITMAP
ENDCHAR
STARTCHAR 174
ENCODING 174
SWIDTH 504 0
DWIDTH 7 0
BBX 0 0 0 0
BITMAP
ENDCHAR
STARTCHAR 175
ENCODING 175
SWIDTH 504 0
DWIDTH 7 0
BBX 0 0 0 0
BITMAP
ENDCHAR
STARTCHAR 176
ENCODING 176
SWIDTH 504 0
DWIDTH 7 0
BBX 4 4 0 4
BITMAP
60
90
90
60
ENDCHAR
STARTCHAR 177
ENCODING 177
SWIDTH 504 0
DWIDTH 7 0
BBX 0 0 0 0
BITMAP
ENDCHAR
STARTCHAR 178
ENCODING 178
SWIDTH 504 0
DWIDTH 7 0
BBX 0 0 0 0
BITMAP
ENDCHAR
STARTCHAR 179
ENCODING 179
SWIDTH 504 0
DWIDTH 7 0
BBX 0 0 0 0
BITMAP
ENDCHAR
STARTCHAR 180
ENCODING 180
SWIDTH 216 0
DWIDTH 3 0
BBX 2 3 0 5
BITMAP
C0
C0
80
ENDCHAR
STARTCHAR 181
ENCODING 181
SWIDTH 504 0
DWIDTH 7 0
BBX 0 0 0 0
BITMAP
ENDCHAR
STARTCHAR 182
ENCODING 182
SWIDTH 504 0
DWIDTH 7 0
BBX 0 0 0 0
BITMAP
ENDCHAR
STARTCHAR 183
ENCODING 183
SWIDTH 360 0
DWIDTH 5 0
BBX 2 2 1 2
BITMAP
C0
C0
ENDCHAR
STARTCHAR 184
ENCODING 184
SWIDTH 504 0
DWIDTH 7 0
BBX 0 0 0 0
BITMAP
ENDCHAR
STARTCHAR 185
ENCODING 185
SWIDTH 504 0
DWIDTH 7 0
BBX 0 0 0 0
BITMAP
ENDCHAR
STARTCHAR 186
ENCODING 186
SWIDTH 504 0
DWIDTH 7 0
BBX 0 0 0 0
BITMAP
ENDCHAR
STARTCHAR 187
ENCODING 187
SWIDTH 576 0
DWIDTH 8 0
BBX 7 5 0 0
BITMAP
D8
6C
36
6C
D8
ENDCHAR
STARTCHAR 188
ENCODING 188
SWIDTH 504 0
DWIDTH 7 0
BBX 0 0 0 0
BITMAP
ENDCHAR
STARTCHAR 189
ENCODING 189
SWIDTH 504 0
DWIDTH 7 0
BBX 0 0 0 0
BITMAP
ENDCHAR
STARTCHAR 190
ENCODING 190
SWIDTH 504 0
DWIDTH 7 0
BBX 0 0 0 0
BITMAP
ENDCHAR
STARTCHAR 191
ENCODING 191
SWIDTH 504 0
DWIDTH 7 0
BBX 0 0 0 0
BITMAP
ENDCHAR
STARTCHAR 192
ENCODING 192
SWIDTH 504 0
DWIDTH 7 0
BBX 0 0 0 0
BITMAP
ENDCHAR
STARTCHAR 193
ENCODING 193
SWIDTH 504 0
DWIDTH 7 0
BBX 0 0 0 0
BITMAP
ENDCHAR
STARTCHAR 194
ENCODING 194
SWIDTH 504 0
DWIDTH 7 0
BBX 0 0 0 0
BITMAP
ENDCHAR
STARTCHAR 195
ENCODING 195
SWIDTH 504 0
DWIDTH 7 0
BBX 0 0 0 0
BITMAP
ENDCHAR
STARTCHAR 196
ENCODING 196
SWIDTH 792 0
DWIDTH 11 0
BBX 10 10 0 0
BITMAP
1200
0000
0C00
1E00
1600
3700
2300
7F80
4180
E3C0
ENDCHAR
STARTCHAR 197
ENCODING 197
SWIDTH 792 0
DWIDTH 11 0
BBX 10 10 0 0
BITMAP
0C00
1200
1200
1E00
1600
3700
2300
7F80
4180
E3C0
ENDCHAR
STARTCHAR 198
ENCODING 198
SWIDTH 504 0
DWIDTH 7 0
BBX 0 0 0 0
BITMAP
ENDCHAR
STARTCHAR 199
ENCODING 199
SWIDTH 504 0
DWIDTH 7 0
BBX 0 0 0 0
BITMAP
ENDCHAR
STARTCHAR 200
ENCODING 200
SWIDTH 504 0
DWIDTH 7 0
BBX 0 0 0 0
BITMAP
ENDCHAR
STARTCHAR 201
ENCODING 201
SWIDTH 504 0
DWIDTH 7 0
BBX 0 0 0 0
BITMAP
ENDCHAR
STARTCHAR 202
ENCODING 202
SWIDTH 504 0
DWIDTH 7 0
BBX 0 0 0 0
BITMAP
ENDCHAR
STARTCHAR 203
ENCODING 203
SWIDTH 504 0
DWIDTH 7 0
BBX 0 0 0 0
BITMAP
ENDCHAR
STARTCHAR 204
ENCODING 204
SWIDTH 504 0
DWIDTH 7 0
BBX 0 0 0 0
BITMAP
ENDCHAR
STARTCHAR 205
ENCODING 205
SWIDTH 504 0
DWIDTH 7 0
BBX 0 0 0 0
BITMAP
ENDCHAR
STARTCHAR 206
ENCODING 206
SWIDTH 504 0
DWIDTH 7 0
BBX 0 0 0 0
BITMAP
ENDCHAR
STARTCHAR 207
ENCODING 207
SWIDTH 504 0
DWIDTH 7 0
BBX 0 0 0 0
BITMAP
ENDCHAR
STARTCHAR 208
ENCODING 208
SWIDTH 504 0
DWIDTH 7 0
BBX 0 0 0 0
BITMAP
ENDCHAR
STARTCHAR 209
ENCODING 209
SWIDTH 504 0
DWIDTH 7 0
BBX 0 0 0 0
BITMAP
ENDCHAR
STARTCHAR 210
ENCODING 210
SWIDTH 504 0
DWIDTH 7 0
BBX 0 0 0 0
BITMAP
ENDCHAR
STARTCHAR 211
ENCODING 211
SWIDTH 504 0
DWIDTH 7 0
BBX 0 0 0 0
BITMAP
ENDCHAR
STARTCHAR 212
ENCODING 212
SWIDTH 504 0
DWIDTH 7 0
BBX 0 0 0 0
BITMAP
ENDCHAR
STARTCHAR 213
ENCODING 213
SWIDTH 504 0
DWIDTH 7 0
BBX 0 0 0 0
BITMAP
ENDCHAR
STARTCHAR 214
ENCODING 214
SWIDTH 720 0
DWIDTH 10 0
BBX 9 10 0 0
BITMAP
1200
0000
1E00
6300
C180
C180
C180
C180
6300
3C00
ENDCHAR
STARTCHAR 215
ENCODING 215
SWIDTH 504 0
DWIDTH 7 0
BBX 6 5 0 0
BITMAP
CC
78
30
78
CC
ENDCHAR
STARTCHAR 216
ENCODING 216
SWIDTH 504 0
DWIDTH 7 0
BBX 0 0 0 0
BITMAP
ENDCHAR
STARTCHAR 217
ENCODING 217
SWIDTH 504 0
DWIDTH 7 0
BBX 0 0 0 0
BITMAP
ENDCHAR
STARTCHAR 218
ENCODING 218
SWIDTH 504 0
DWIDTH 7 0
BBX 0 0 0 0
BITMAP
ENDCHAR
STARTCHAR 219
ENCODING 219
SWIDTH 504 0
DWIDTH 7 0
BBX 0 0 0 0
BITMAP
ENDCHAR
STARTCHAR 220
ENCODING 220
SWIDTH 504 0
DWIDTH 7 0
BBX 0 0 0 0
BITMAP
ENDCHAR
STARTCHAR 221
ENCODING 221
SWIDTH 504 0
DWIDTH 7 0
BBX 0 0 0 0
BITMAP
ENDCHAR
STARTCHAR 222
ENCODING 222
SWIDTH 504 0
DWIDTH 7 0
BBX 0 0 0 0
BITMAP
ENDCHAR
STARTCHAR 223
ENCODING 223
SWIDTH 504 0
DWIDTH 7 0
BBX 0 0 0 0
BITMAP
ENDCHAR
STARTCHAR 224
ENCODING 224
SWIDTH 504 0
DWIDTH 7 0
BBX 0 0 0 0
BITMAP
ENDCHAR
STARTCHAR 225
ENCODING 225
SWIDTH 504 0
DWIDTH 7 0
BBX 0 0 0 0
BITMAP
ENDCHAR
STARTCHAR 226
ENCODING 226
SWIDTH 504 0
DWIDTH 7 0
BBX 0 0 0 0
BITMAP
ENDCHAR
STARTCHAR 227
ENCODING 227
SWIDTH 504 0
DWIDTH 7 0
BBX 0 0 0 0
BITMAP
ENDCHAR
STARTCHAR 228
ENCODING 228
SWIDTH 648 0
DWIDTH 9 0
BBX 8 8 0 0
BITMAP
24
00
3C
06
7E
C6
C6
7B
ENDCHAR
STARTCHAR 229
ENCODING 229
SWIDTH 648 0
DWIDTH 9 0
BBX 8 9 0 0
BITMAP
18
24
24
7C
06
7E
C6
C6
7B
ENDCHAR
STARTCHAR 230
ENCODING 230
SWIDTH 504 0
DWIDTH 7 0
BBX 0 0 0 0
BITMAP
ENDCHAR
STARTCHAR 231
ENCODING 231
SWIDTH 504 0
DWIDTH 7 0
BBX 0 0 0 0
BITMAP
ENDCHAR
STARTCHAR 232
ENCODING 232
SWIDTH 504 0
DWIDTH 7 0
BBX 0 0 0 0
BITMAP
ENDCHAR
STARTCHAR 233
ENCODING 233
SWIDTH 504 0
DWIDTH 7 0
BBX 0 0 0 0
BITMAP
ENDCHAR
STARTCHAR 234
ENCODING 234
SWIDTH 504 0
DWIDTH 7 0
BBX 0 0 0 0
BITMAP
ENDCHAR
STARTCHAR 235
ENCODING 235
SWIDTH 504 0
DWIDTH 7 0
BBX 0 0 0 0
BITMAP
ENDCHAR
STARTCHAR 236
ENCODING 236
SWIDTH 504 0
DWIDTH 7 0
BBX 0 0 0 0
BITMAP
ENDCHAR
STARTCHAR 237
ENCODING 237
SWIDTH 504 0
DWIDTH 7 0
BBX 0 0 0 0
BITMAP
ENDCHAR
STARTCHAR 238
ENCODING 238
SWIDTH 504 0
DWIDTH 7 0
BBX 0 0 0 0
BITMAP
ENDCHAR
STARTCHAR 239
ENCODING 239
SWIDTH 504 0
DWIDTH 7 0
BBX 0 0 0 0
BITMAP
ENDCHAR
STARTCHAR 240
ENCODING 240
SWIDTH 504 0
DWIDTH 7 0
BBX 0 0 0 0
BITMAP
ENDCHAR
STARTCHAR 241
ENCODING 241
SWIDTH 504 0
DWIDTH 7 0
BBX 0 0 0 0
BITMAP
ENDCHAR
STARTCHAR 242
ENCODING 242
SWIDTH 504 0
DWIDTH 7 0
BBX 0 0 0 0
BITMAP
ENDCHAR
STARTCHAR 243
ENCODING 243
SWIDTH 504 0
DWIDTH 7 0
BBX 0 0 0 0
BITMAP
ENDCHAR
STARTCHAR 244
ENCODING 244
SWIDTH 504 0
DWIDTH 7 0
BBX 0 0 0 0
BITMAP
ENDCHAR
STARTCHAR 245
ENCODING 245
SWIDTH 504 0
DWIDTH 7 0
BBX 0 0 0 0
BITMAP
ENDCHAR
STARTCHAR 246
ENCODING 246
SWIDTH 576 0
DWIDTH 8 0
BBX 7 8 0 0
BITMAP
24
00
3C
4E
C6
C6
E6
78
ENDCHAR
STARTCHAR 247
ENCODING 247
SWIDTH 504 0
DWIDTH 7 0
BBX 6 7 0 0
BITMAP
30
30
00
FC
00
30
30
ENDCHAR
STARTCHAR 248
ENCODING 248
SWIDTH 504 0
DWIDTH 7 0
BBX 0 0 0 0
BITMAP
ENDCHAR
STARTCHAR 249
ENCODING 249
SWIDTH 504 0
DWIDTH 7 0
BBX 0 0 0 0
BITMAP
ENDCHAR
STARTCHAR 250
ENCODING 250
SWIDTH 504 0
DWIDTH 7 0
BBX 0 0 0 0
BITMAP
ENDCHAR
STARTCHAR 251
ENCODING 251
SWIDTH 504 0
DWIDTH 7 0
BBX 0 0 0 0
BITMAP
ENDCHAR
STARTCHAR 252
ENCODING 252
SWIDTH 504 0
DWIDTH 7 0
BBX 0 0 0 0
BITMAP
ENDCHAR
STARTCHAR 253
ENCODING 253
SWIDTH 504 0
DWIDTH 7 0
BBX 0 0 0 0
BITMAP
ENDCHAR
STARTCHAR 254
ENCODING 254
SWIDTH 504 0
DWIDTH 7 0
BBX 0 0 0 0
BITMAP
ENDCHAR
STARTCHAR 255
ENCODING 255
SWIDTH 504 0
DWIDTH 7 0
BBX 0 0 0 0
BITMAP
ENDCHAR
ENDFONT
